<svg width="29" height="35" viewBox="0 0 29 35" fill="none" xmlns="http://www.w3.org/2000/svg">
<g id="system-uicons:location">
<g id="Group">
<path id="Vector" fill-rule="evenodd" clip-rule="evenodd" d="M14.5006 30.8998L15.3719 29.7148C16.3607 28.3482 17.25 27.0515 18.0413 25.8182L18.6945 24.7782C21.4219 20.3432 22.7863 16.8232 22.7863 14.2215C22.7863 8.66817 19.077 4.1665 14.5006 4.1665C9.92408 4.1665 6.21484 8.66817 6.21484 14.2215C6.21484 16.8232 7.57922 20.3432 10.3066 24.7782L10.9598 25.8182C12.0886 27.5638 13.2697 29.2577 14.5006 30.8998Z" stroke="black" stroke-linecap="round" stroke-linejoin="round"/>
<path id="Vector_2" d="M14.5012 18.3333C16.4079 18.3333 17.9536 16.4679 17.9536 14.1667C17.9536 11.8655 16.4079 10 14.5012 10C12.5945 10 11.0488 11.8655 11.0488 14.1667C11.0488 16.4679 12.5945 18.3333 14.5012 18.3333Z" stroke="black" stroke-linecap="round" stroke-linejoin="round"/>
</g>
</g>
</svg>
