<svg width="112" height="24" viewBox="0 0 112 24" fill="none" xmlns="http://www.w3.org/2000/svg">
<path d="M10 19.2884L16.18 24L14.54 15.12L20 9.14526L12.81 8.37474L10 0L7.19 8.37474L0 9.14526L5.46 15.12L3.82 24L10 19.2884Z" fill="#F89559"/>
<path d="M33 19.2884L39.18 24L37.54 15.12L43 9.14526L35.81 8.37474L33 0L30.19 8.37474L23 9.14526L28.46 15.12L26.82 24L33 19.2884Z" fill="#F89559"/>
<path d="M56 19.2884L62.18 24L60.54 15.12L66 9.14526L58.81 8.37474L56 0L53.19 8.37474L46 9.14526L51.46 15.12L49.82 24L56 19.2884Z" fill="#F89559"/>
<path d="M79 19.2884L85.18 24L83.54 15.12L89 9.14526L81.81 8.37474L79 0L76.19 8.37474L69 9.14526L74.46 15.12L72.82 24L79 19.2884Z" fill="#F89559"/>
<path d="M102 19.2884L108.18 24L106.54 15.12L112 9.14526L104.81 8.37474L102 0L99.19 8.37474L92 9.14526L97.46 15.12L95.82 24L102 19.2884Z" fill="#F89559"/>
</svg>
