<svg width="29" height="27" viewBox="0 0 29 27" fill="none" xmlns="http://www.w3.org/2000/svg">
<g id="fluent:ios-arrow-24-regular">
<path id="Vector" d="M14.5005 22.1671L3.95533 12.6136C3.87035 12.535 3.76946 12.4728 3.6585 12.4307C3.54753 12.3886 3.4287 12.3674 3.30888 12.3683C3.18905 12.3692 3.07062 12.3923 2.96042 12.4361C2.85022 12.4799 2.75046 12.5436 2.66689 12.6236C2.58332 12.7036 2.51762 12.7982 2.47358 12.9019C2.42954 13.0057 2.40804 13.1165 2.41032 13.2281C2.4126 13.3396 2.43862 13.4496 2.48687 13.5518C2.53512 13.6539 2.60464 13.7461 2.69142 13.823L13.8685 23.948C14.0377 24.1013 14.2644 24.187 14.5005 24.187C14.7365 24.187 14.9632 24.1013 15.1324 23.948L26.3095 13.823C26.3963 13.7461 26.4658 13.6539 26.514 13.5518C26.5623 13.4496 26.5883 13.3396 26.5906 13.2281C26.5929 13.1165 26.5714 13.0057 26.5273 12.9019C26.4833 12.7982 26.4176 12.7036 26.334 12.6236C26.2505 12.5436 26.1507 12.4799 26.0405 12.4361C25.9303 12.3923 25.8119 12.3692 25.692 12.3683C25.5722 12.3674 25.4534 12.3886 25.3424 12.4307C25.2315 12.4728 25.1306 12.535 25.0456 12.6136L14.5005 22.1671Z" fill="black"/>
</g>
</svg>
